<svg id="Layer_1" data-name="Layer 1" xmlns="http://www.w3.org/2000/svg" viewBox="0 0 508.84 540.72"><defs><style>.cls-1{fill:#22252a;}.cls-2{font-size:60px;font-family:Montserrat-Regular, Montserrat;}</style></defs><g id="clock"><rect class="cls-1" x="839.26" y="310.53" width="4.23" height="48.57" transform="translate(-758.91 192.1) rotate(-29.95)"/><rect class="cls-1" x="752.47" y="397.21" width="4.23" height="48.58" transform="translate(-692.22 590.91) rotate(-59.95)"/><rect class="cls-1" x="730.15" y="656.1" width="48.58" height="4.74" transform="translate(-932.44 193.54) rotate(-30.05)"/><rect class="cls-1" x="816.84" y="742.89" width="48.57" height="4.73" transform="translate(-929.29 827.37) rotate(-59.95)"/><polygon class="cls-1" points="359.8 452.83 363.88 450.48 388.17 492.54 384.09 494.89 359.8 452.83"/><polygon class="cls-1" points="438.56 375.91 440.93 371.81 482.99 396.09 480.62 400.19 438.56 375.91"/><polygon class="cls-1" points="440.95 163.01 438.82 159.32 480.89 135.04 482.99 138.73 440.95 163.01"/><polygon class="cls-1" points="363.93 84.33 360.24 82.2 384.53 40.13 388.21 42.28 363.93 84.33"/></g><text class="cls-2" transform="translate(228 51)">12</text><text class="cls-2" transform="translate(475 286)">3</text><text class="cls-2" transform="translate(0 285)">9</text><text class="cls-2" transform="translate(238 525)">6</text></svg>